<svg width="257" height="88" viewBox="0 0 257 88" fill="none" xmlns="http://www.w3.org/2000/svg">
<rect width="25" height="88" fill="#2258E3"/>
<rect x="25" width="54" height="24" fill="#2258E3"/>
<rect x="52" y="12" width="27" height="24" fill="#2258E3"/>
<rect x="25" y="31" width="54" height="24" fill="#2258E3"/>
<g filter="url(#filter0_d_0_1)">
<path d="M85.1009 37.0909V22.0909H88.5384V23.9588H88.6449C88.7869 23.6274 88.9882 23.3078 89.2486 23C89.5137 22.6922 89.8499 22.4413 90.2571 22.2472C90.669 22.0483 91.1615 21.9489 91.7344 21.9489C92.492 21.9489 93.1998 22.1477 93.858 22.5455C94.5208 22.9432 95.0559 23.5563 95.4631 24.3849C95.8703 25.2135 96.0739 26.2694 96.0739 27.5526C96.0739 28.7884 95.8774 29.8229 95.4844 30.6562C95.0961 31.4896 94.5705 32.1146 93.9077 32.5312C93.2495 32.9479 92.518 33.1562 91.7131 33.1562C91.1638 33.1562 90.688 33.0663 90.2855 32.8864C89.883 32.7064 89.5445 32.4697 89.2699 32.1761C89 31.8826 88.7917 31.5677 88.6449 31.2315H88.5739V37.0909H85.1009ZM88.5028 27.5455C88.5028 28.1326 88.581 28.6439 88.7372 29.0795C88.8982 29.5152 89.1278 29.8537 89.4261 30.0952C89.7292 30.3319 90.0914 30.4503 90.5128 30.4503C90.9389 30.4503 91.3011 30.3319 91.5994 30.0952C91.8977 29.8537 92.1226 29.5152 92.2741 29.0795C92.4304 28.6439 92.5085 28.1326 92.5085 27.5455C92.5085 26.9583 92.4304 26.4493 92.2741 26.0185C92.1226 25.5876 91.8977 25.2538 91.5994 25.017C91.3059 24.7803 90.9437 24.6619 90.5128 24.6619C90.0866 24.6619 89.7244 24.7779 89.4261 25.0099C89.1278 25.242 88.8982 25.5734 88.7372 26.0043C88.581 26.4351 88.5028 26.9489 88.5028 27.5455ZM97.8938 33V22.0909H101.267V24.0795H101.381C101.58 23.3598 101.904 22.8248 102.354 22.4744C102.804 22.1193 103.327 21.9418 103.924 21.9418C104.085 21.9418 104.25 21.9536 104.421 21.9773C104.591 21.9962 104.75 22.027 104.897 22.0696V25.0881C104.731 25.0312 104.513 24.9863 104.243 24.9531C103.978 24.92 103.741 24.9034 103.533 24.9034C103.121 24.9034 102.749 24.9957 102.418 25.1804C102.091 25.3603 101.833 25.6136 101.644 25.9403C101.459 26.2623 101.367 26.6411 101.367 27.0767V33H97.8938ZM110.838 33.206C109.692 33.206 108.707 32.9716 107.883 32.5028C107.064 32.0294 106.432 31.3712 105.987 30.5284C105.547 29.6809 105.326 28.6984 105.326 27.581C105.326 26.4588 105.547 25.4763 105.987 24.6335C106.432 23.786 107.064 23.1278 107.883 22.6591C108.707 22.1856 109.692 21.9489 110.838 21.9489C111.984 21.9489 112.966 22.1856 113.785 22.6591C114.609 23.1278 115.241 23.786 115.681 24.6335C116.127 25.4763 116.349 26.4588 116.349 27.581C116.349 28.6984 116.127 29.6809 115.681 30.5284C115.241 31.3712 114.609 32.0294 113.785 32.5028C112.966 32.9716 111.984 33.206 110.838 33.206ZM110.859 30.5852C111.276 30.5852 111.628 30.4574 111.917 30.2017C112.206 29.946 112.426 29.5909 112.578 29.1364C112.734 28.6818 112.812 28.1562 112.812 27.5597C112.812 26.9536 112.734 26.4233 112.578 25.9688C112.426 25.5142 112.206 25.1591 111.917 24.9034C111.628 24.6477 111.276 24.5199 110.859 24.5199C110.428 24.5199 110.064 24.6477 109.765 24.9034C109.472 25.1591 109.247 25.5142 109.091 25.9688C108.939 26.4233 108.863 26.9536 108.863 27.5597C108.863 28.1562 108.939 28.6818 109.091 29.1364C109.247 29.5909 109.472 29.946 109.765 30.2017C110.064 30.4574 110.428 30.5852 110.859 30.5852ZM118.128 22.0909H121.601V33.4545C121.601 34.3542 121.417 35.0691 121.047 35.5994C120.683 36.1297 120.167 36.5109 119.499 36.7429C118.831 36.9749 118.043 37.0909 117.134 37.0909C117.011 37.0909 116.895 37.0885 116.786 37.0838C116.677 37.0791 116.559 37.0743 116.431 37.0696V34.4347C116.516 34.4441 116.592 34.4512 116.658 34.456C116.724 34.4607 116.791 34.4631 116.857 34.4631C117.335 34.4631 117.667 34.3731 117.851 34.1932C118.036 34.018 118.128 33.7481 118.128 33.3835V22.0909ZM119.861 20.8196C119.373 20.8196 118.954 20.6586 118.604 20.3366C118.254 20.0099 118.078 19.617 118.078 19.1577C118.078 18.7031 118.254 18.3149 118.604 17.9929C118.954 17.6662 119.373 17.5028 119.861 17.5028C120.354 17.5028 120.773 17.6662 121.118 17.9929C121.469 18.3149 121.644 18.7031 121.644 19.1577C121.644 19.617 121.469 20.0099 121.118 20.3366C120.773 20.6586 120.354 20.8196 119.861 20.8196ZM128.911 33.206C127.77 33.206 126.785 32.9811 125.957 32.5312C125.133 32.0767 124.498 31.4304 124.053 30.5923C123.613 29.7495 123.393 28.7481 123.393 27.5881C123.393 26.4612 123.615 25.4763 124.06 24.6335C124.505 23.786 125.133 23.1278 125.942 22.6591C126.752 22.1856 127.706 21.9489 128.805 21.9489C129.581 21.9489 130.291 22.0696 130.935 22.3111C131.579 22.5526 132.136 22.91 132.604 23.3835C133.073 23.857 133.438 24.4418 133.698 25.1378C133.959 25.8291 134.089 26.6222 134.089 27.517V28.3835H124.607V26.3665H130.857C130.853 25.9972 130.765 25.6681 130.594 25.3793C130.424 25.0904 130.19 24.8655 129.891 24.7045C129.598 24.5388 129.259 24.456 128.876 24.456C128.487 24.456 128.139 24.5436 127.832 24.7188C127.524 24.8892 127.28 25.1236 127.1 25.4219C126.92 25.7154 126.826 26.0492 126.816 26.4233V28.4759C126.816 28.9209 126.904 29.3116 127.079 29.6477C127.254 29.9792 127.503 30.2372 127.825 30.4219C128.147 30.6065 128.53 30.6989 128.975 30.6989C129.283 30.6989 129.562 30.6562 129.813 30.571C130.064 30.4858 130.28 30.3603 130.46 30.1946C130.639 30.0289 130.774 29.8253 130.864 29.5838L134.053 29.6761C133.921 30.3911 133.629 31.0137 133.18 31.544C132.735 32.0696 132.15 32.4792 131.425 32.7727C130.701 33.0616 129.863 33.206 128.911 33.206ZM140.955 33.206C139.804 33.206 138.817 32.9692 137.993 32.4957C137.174 32.0223 136.544 31.3641 136.104 30.5213C135.664 29.6738 135.444 28.6937 135.444 27.581C135.444 26.4635 135.664 25.4834 136.104 24.6406C136.549 23.7931 137.181 23.1326 138 22.6591C138.824 22.1856 139.807 21.9489 140.948 21.9489C141.956 21.9489 142.835 22.1312 143.583 22.4957C144.336 22.8603 144.923 23.3764 145.344 24.044C145.77 24.7069 145.995 25.4858 146.019 26.3807H142.773C142.707 25.822 142.517 25.384 142.205 25.0668C141.897 24.7495 141.495 24.5909 140.998 24.5909C140.595 24.5909 140.242 24.7045 139.939 24.9318C139.636 25.1544 139.4 25.4858 139.229 25.9261C139.063 26.3617 138.98 26.9015 138.98 27.5455C138.98 28.1894 139.063 28.7339 139.229 29.179C139.4 29.6193 139.636 29.9531 139.939 30.1804C140.242 30.4029 140.595 30.5142 140.998 30.5142C141.319 30.5142 141.604 30.4455 141.85 30.3082C142.101 30.1709 142.307 29.9697 142.468 29.7045C142.629 29.4347 142.73 29.108 142.773 28.7244H146.019C145.986 29.6241 145.761 30.41 145.344 31.0824C144.932 31.7547 144.352 32.2779 143.604 32.652C142.861 33.0213 141.978 33.206 140.955 33.206ZM153.954 22.0909V24.6477H147.072V22.0909H153.954ZM148.513 19.4773H151.987V29.5696C151.987 29.7827 152.02 29.9555 152.086 30.0881C152.157 30.2159 152.259 30.3082 152.391 30.3651C152.524 30.4171 152.683 30.4432 152.867 30.4432C153 30.4432 153.139 30.4313 153.286 30.4077C153.438 30.3793 153.551 30.3556 153.627 30.3366L154.153 32.8438C153.987 32.8911 153.753 32.9503 153.45 33.0213C153.151 33.0923 152.794 33.1373 152.377 33.1562C151.563 33.1941 150.864 33.0994 150.282 32.8722C149.704 32.6402 149.262 32.2803 148.954 31.7926C148.651 31.3049 148.504 30.6918 148.513 29.9531V19.4773ZM157.764 33L154.923 22.0909H158.411L159.881 29.0795H159.973L161.55 22.0909H164.952L166.571 29.0298H166.663L168.091 22.0909H171.578L168.73 33H165.016L163.311 26.6435H163.19L161.486 33H157.764ZM172.972 33V22.0909H176.445V33H172.972ZM174.712 20.8196C174.224 20.8196 173.805 20.6586 173.455 20.3366C173.105 20.0099 172.929 19.617 172.929 19.1577C172.929 18.7031 173.105 18.3149 173.455 17.9929C173.805 17.6662 174.224 17.5028 174.712 17.5028C175.204 17.5028 175.623 17.6662 175.969 17.9929C176.319 18.3149 176.495 18.7031 176.495 19.1577C176.495 19.617 176.319 20.0099 175.969 20.3366C175.623 20.6586 175.204 20.8196 174.712 20.8196ZM184.813 22.0909V24.6477H177.931V22.0909H184.813ZM179.373 19.4773H182.846V29.5696C182.846 29.7827 182.879 29.9555 182.945 30.0881C183.016 30.2159 183.118 30.3082 183.251 30.3651C183.383 30.4171 183.542 30.4432 183.727 30.4432C183.859 30.4432 183.999 30.4313 184.146 30.4077C184.297 30.3793 184.411 30.3556 184.487 30.3366L185.012 32.8438C184.846 32.8911 184.612 32.9503 184.309 33.0213C184.011 33.0923 183.653 33.1373 183.237 33.1562C182.422 33.1941 181.724 33.0994 181.141 32.8722C180.564 32.6402 180.121 32.2803 179.813 31.7926C179.51 31.3049 179.363 30.6918 179.373 29.9531V19.4773ZM190.293 26.7784V33H186.82V18.4545H190.179V24.0938H190.3C190.546 23.4214 190.948 22.8958 191.507 22.517C192.071 22.1383 192.759 21.9489 193.574 21.9489C194.341 21.9489 195.009 22.1193 195.577 22.4602C196.145 22.7964 196.585 23.2723 196.898 23.8878C197.215 24.5033 197.371 25.223 197.366 26.0469V33H193.893V26.7287C193.898 26.1226 193.747 25.6491 193.439 25.3082C193.131 24.9673 192.698 24.7969 192.139 24.7969C191.775 24.7969 191.453 24.8774 191.173 25.0384C190.899 25.1946 190.683 25.4195 190.527 25.7131C190.375 26.0066 190.297 26.3617 190.293 26.7784ZM204.62 37.3182C203.583 37.3182 202.695 37.1738 201.956 36.8849C201.218 36.5961 200.638 36.2008 200.216 35.6989C199.795 35.197 199.542 34.6288 199.456 33.9943L202.745 33.8097C202.806 34.0322 202.92 34.2263 203.086 34.392C203.256 34.5578 203.476 34.6856 203.746 34.7756C204.021 34.8655 204.343 34.9105 204.712 34.9105C205.294 34.9105 205.775 34.7685 206.154 34.4844C206.537 34.205 206.729 33.715 206.729 33.0142V31.0966H206.608C206.471 31.4328 206.263 31.7334 205.983 31.9986C205.704 32.2637 205.356 32.4721 204.939 32.6236C204.527 32.7751 204.054 32.8509 203.519 32.8509C202.723 32.8509 201.994 32.6662 201.331 32.2969C200.673 31.9228 200.145 31.3452 199.748 30.5639C199.355 29.7779 199.158 28.767 199.158 27.5312C199.158 26.2576 199.362 25.2088 199.769 24.3849C200.176 23.5563 200.709 22.9432 201.367 22.5455C202.03 22.1477 202.742 21.9489 203.505 21.9489C204.078 21.9489 204.568 22.0483 204.975 22.2472C205.387 22.4413 205.725 22.6922 205.99 23C206.256 23.3078 206.457 23.6274 206.594 23.9588H206.694V22.0909H210.152V33.0426C210.152 33.9659 209.92 34.7448 209.456 35.3793C208.992 36.0137 208.344 36.4943 207.51 36.821C206.677 37.1525 205.713 37.3182 204.62 37.3182ZM204.726 30.3224C205.148 30.3224 205.507 30.2112 205.806 29.9886C206.104 29.7661 206.334 29.4465 206.495 29.0298C206.656 28.6132 206.736 28.1136 206.736 27.5312C206.736 26.9394 206.656 26.4304 206.495 26.0043C206.338 25.5734 206.109 25.242 205.806 25.0099C205.507 24.7779 205.148 24.6619 204.726 24.6619C204.295 24.6619 203.931 24.7803 203.632 25.017C203.334 25.2538 203.107 25.5876 202.951 26.0185C202.799 26.4446 202.723 26.9489 202.723 27.5312C202.723 28.1136 202.801 28.6132 202.958 29.0298C203.114 29.4465 203.339 29.7661 203.632 29.9886C203.931 30.2112 204.295 30.3224 204.726 30.3224ZM217.459 33.206C216.313 33.206 215.328 32.9716 214.504 32.5028C213.685 32.0294 213.053 31.3712 212.608 30.5284C212.168 29.6809 211.947 28.6984 211.947 27.581C211.947 26.4588 212.168 25.4763 212.608 24.6335C213.053 23.786 213.685 23.1278 214.504 22.6591C215.328 22.1856 216.313 21.9489 217.459 21.9489C218.605 21.9489 219.587 22.1856 220.406 22.6591C221.23 23.1278 221.862 23.786 222.303 24.6335C222.748 25.4763 222.97 26.4588 222.97 27.581C222.97 28.6984 222.748 29.6809 222.303 30.5284C221.862 31.3712 221.23 32.0294 220.406 32.5028C219.587 32.9716 218.605 33.206 217.459 33.206ZM217.48 30.5852C217.897 30.5852 218.25 30.4574 218.538 30.2017C218.827 29.946 219.047 29.5909 219.199 29.1364C219.355 28.6818 219.433 28.1562 219.433 27.5597C219.433 26.9536 219.355 26.4233 219.199 25.9688C219.047 25.5142 218.827 25.1591 218.538 24.9034C218.25 24.6477 217.897 24.5199 217.48 24.5199C217.049 24.5199 216.685 24.6477 216.386 24.9034C216.093 25.1591 215.868 25.5142 215.712 25.9688C215.56 26.4233 215.484 26.9536 215.484 27.5597C215.484 28.1562 215.56 28.6818 215.712 29.1364C215.868 29.5909 216.093 29.946 216.386 30.2017C216.685 30.4574 217.049 30.5852 217.48 30.5852ZM224.749 37.0909V22.0909H228.187V23.9588H228.293C228.435 23.6274 228.637 23.3078 228.897 23C229.162 22.6922 229.498 22.4413 229.906 22.2472C230.317 22.0483 230.81 21.9489 231.383 21.9489C232.14 21.9489 232.848 22.1477 233.506 22.5455C234.169 22.9432 234.704 23.5563 235.112 24.3849C235.519 25.2135 235.722 26.2694 235.722 27.5526C235.722 28.7884 235.526 29.8229 235.133 30.6562C234.745 31.4896 234.219 32.1146 233.556 32.5312C232.898 32.9479 232.166 33.1562 231.362 33.1562C230.812 33.1562 230.336 33.0663 229.934 32.8864C229.531 32.7064 229.193 32.4697 228.918 32.1761C228.648 31.8826 228.44 31.5677 228.293 31.2315H228.222V37.0909H224.749ZM228.151 27.5455C228.151 28.1326 228.229 28.6439 228.386 29.0795C228.547 29.5152 228.776 29.8537 229.075 30.0952C229.378 30.3319 229.74 30.4503 230.161 30.4503C230.587 30.4503 230.95 30.3319 231.248 30.0952C231.546 29.8537 231.771 29.5152 231.923 29.0795C232.079 28.6439 232.157 28.1326 232.157 27.5455C232.157 26.9583 232.079 26.4493 231.923 26.0185C231.771 25.5876 231.546 25.2538 231.248 25.017C230.954 24.7803 230.592 24.6619 230.161 24.6619C229.735 24.6619 229.373 24.7779 229.075 25.0099C228.776 25.242 228.547 25.5734 228.386 26.0043C228.229 26.4351 228.151 26.9489 228.151 27.5455ZM240.618 33.1847C239.922 33.1847 239.304 33.0687 238.764 32.8366C238.229 32.5999 237.805 32.2448 237.493 31.7713C237.185 31.2931 237.031 30.6941 237.031 29.9744C237.031 29.3684 237.137 28.857 237.35 28.4403C237.564 28.0237 237.857 27.6851 238.231 27.4247C238.605 27.1643 239.036 26.9678 239.524 26.8352C240.011 26.6979 240.532 26.6056 241.086 26.5582C241.707 26.5014 242.206 26.4422 242.585 26.3807C242.964 26.3144 243.238 26.2221 243.409 26.1037C243.584 25.9806 243.672 25.8078 243.672 25.5852V25.5497C243.672 25.1851 243.546 24.9034 243.295 24.7045C243.044 24.5057 242.706 24.4062 242.279 24.4062C241.82 24.4062 241.451 24.5057 241.172 24.7045C240.892 24.9034 240.715 25.178 240.639 25.5284L237.436 25.4148C237.53 24.7519 237.774 24.16 238.167 23.6392C238.565 23.1136 239.109 22.7017 239.801 22.4034C240.497 22.1004 241.333 21.9489 242.308 21.9489C243.004 21.9489 243.645 22.0317 244.233 22.1974C244.82 22.3584 245.331 22.5952 245.767 22.9077C246.202 23.2154 246.538 23.5942 246.775 24.044C247.017 24.4938 247.137 25.0076 247.137 25.5852V33H243.87V31.4801H243.785C243.591 31.8494 243.342 32.1619 243.039 32.4176C242.741 32.6733 242.388 32.8651 241.981 32.9929C241.579 33.1207 241.124 33.1847 240.618 33.1847ZM241.69 30.9119C242.064 30.9119 242.4 30.8362 242.699 30.6847C243.002 30.5331 243.243 30.3248 243.423 30.0597C243.603 29.7898 243.693 29.4773 243.693 29.1222V28.0852C243.593 28.1373 243.473 28.1847 243.331 28.2273C243.193 28.2699 243.042 28.3101 242.876 28.348C242.71 28.3859 242.54 28.419 242.365 28.4474C242.19 28.4759 242.021 28.5019 241.86 28.5256C241.534 28.5777 241.254 28.6581 241.022 28.767C240.795 28.8759 240.62 29.018 240.497 29.1932C240.378 29.3636 240.319 29.5672 240.319 29.804C240.319 30.1638 240.447 30.4384 240.703 30.6278C240.963 30.8172 241.292 30.9119 241.69 30.9119ZM252.734 18.4545V33H249.261V18.4545H252.734Z" fill="#1D7BE9"/>
</g>
<defs>
<filter id="filter0_d_0_1" x="81.1009" y="17.5028" width="175.633" height="27.8153" filterUnits="userSpaceOnUse" color-interpolation-filters="sRGB">
<feFlood flood-opacity="0" result="BackgroundImageFix"/>
<feColorMatrix in="SourceAlpha" type="matrix" values="0 0 0 0 0 0 0 0 0 0 0 0 0 0 0 0 0 0 127 0" result="hardAlpha"/>
<feOffset dy="4"/>
<feGaussianBlur stdDeviation="2"/>
<feComposite in2="hardAlpha" operator="out"/>
<feColorMatrix type="matrix" values="0 0 0 0 0 0 0 0 0 0 0 0 0 0 0 0 0 0 0.25 0"/>
<feBlend mode="normal" in2="BackgroundImageFix" result="effect1_dropShadow_0_1"/>
<feBlend mode="normal" in="SourceGraphic" in2="effect1_dropShadow_0_1" result="shape"/>
</filter>
</defs>
</svg>
